#!OML:ASF X:\für Bonn\!DataBase\2005_08_12_Daniel\c3d\Daniel.ASF
:FULLY-SPECIFIED
:DEGREES
207
root 12.7188 16.9621 1.91341 80.6761 -96.353 -84.4088
lowerback 5.46716 0.890853 -8.11124
upperback 1.93787 0.291556 -7.64221
thorax -1.07837 -0.00399504 -3.41522
lowerneck 6.17038 3.13136 -2.13634
upperneck 7.93062 3.58068 5.45447
head 1.29484 1.68498 2.04992
rclavicle 5.06901e-015 -4.77083e-014
rhumerus -35.4698 8.93784 -100.139
rradius 35.0177
rwrist 23.9781
rhand -12.9815 18.6731
rfingers 7.12502
rthumb 13.111 -10.8948
lclavicle 5.06901e-015 -4.77083e-014
lhumerus -48.2449 -0.54974 84.432
lradius 109.511
lwrist 9.79673
lhand -16.9214 -11.7225
lfingers 7.12502
lthumb 9.3112 18.0518
rfemur 9.04868 -6.9718 9.06001
rtibia 49.7905
rfoot -8.47825 -5.96561
rtoes -2.12569
lfemur -21.9428 -13.0851 -28.3403
ltibia 43.6276
lfoot -22.3582 15.2878
ltoes -7.28431
208
root 12.8249 16.9581 1.90438 80.0199 -96.4076 -83.6427
lowerback 5.45126 0.995348 -7.9444
upperback 1.84003 0.432996 -7.66724
thorax -1.17011 0.0708845 -3.54379
lowerneck 6.06891 3.06912 -2.27748
upperneck 7.93327 3.49525 5.46797
head 1.31373 1.64179 2.08247
rclavicle -3.67752e-015 5.56597e-014
rhumerus -35.1614 8.5444 -99.7336
rradius 34.3856
rwrist 24.1206
rhand -12.6794 18.5303
rfingers 7.12502
rthumb 13.4022 -11.0186
lclavicle -3.67752e-015 5.56597e-014
lhumerus -48.0866 -0.300371 84.3686
lradius 109.566
lwrist 9.88926
lhand -17.1672 -11.9557
lfingers 7.12502
lthumb 9.07405 17.8291
rfemur 9.64133 -6.43772 9.15302
rtibia 49.1284
rfoot -7.87649 -6.2564
rtoes -2.58927
lfemur -22.4562 -13.0522 -28.1819
ltibia 43.5271
lfoot -22.0097 15.2884
ltoes -6.90741
209
root 12.9333 16.952 1.89463 79.3222 -96.4643 -82.8409
lowerback 5.44082 1.09487 -7.76425
upperback 1.75016 0.567997 -7.70179
thorax -1.25541 0.141814 -3.68978
lowerneck 5.97163 3.0047 -2.38357
upperneck 7.93504 3.40957 5.45977
head 1.33274 1.59906 2.10161
rclavicle 5.76476e-015 -8.5875e-014
rhumerus -34.8424 8.10145 -99.331
rradius 33.7632
rwrist 24.239
rhand -12.4396 18.3784
rfingers 7.12502
rthumb 13.6334 -11.1551
lclavicle 5.76476e-015 -8.5875e-014
lhumerus -47.9122 -0.0478353 84.2744
lradius 109.619
lwrist 9.95707
lhand -17.3417 -12.1488
lfingers 7.12502
lthumb 8.90567 17.6433
rfemur 10.1993 -5.92984 9.24215
rtibia 48.4741
rfoot -7.30559 -6.48554
rtoes -3.12562
lfemur -22.998 -13.0918 -28.0239
ltibia 43.4818
lfoot -21.6825 15.372
ltoes -6.44152
210
root 13.0433 16.9449 1.88436 78.6698 -96.5093 -82.0845
lowerback 5.43459 1.17901 -7.5733
upperback 1.6715 0.684428 -7.72975
thorax -1.33041 0.20308 -3.83387
lowerneck 5.82399 2.94551 -2.45763
upperneck 7.95466 3.33441 5.42184
head 1.36661 1.56312 2.10641
rclavicle -1.27222e-014 -2.54444e-014
rhumerus -34.4945 7.63955 -98.931
rradius 33.1534
rwrist 24.397
rhand -12.2381 18.1565
rfingers 7.12502
rthumb 13.8276 -11.3639
lclavicle -1.27222e-014 -2.54444e-014
lhumerus -47.7317 0.228417 84.1725
lradius 109.678
lwrist 10.0141
lhand -17.5148 -12.2736
lfingers 7.12502
lthumb 8.73859 17.5255
rfemur 10.7273 -5.46728 9.33123
rtibia 47.7803
rfoot -7.05597 -6.45378
rtoes -4.85313
lfemur -23.5565 -13.0552 -27.8495
ltibia 43.4619
lfoot -21.3436 15.3853
ltoes -5.92821
211
root 13.1602 16.9221 1.87342 78.0323 -96.5531 -81.3578
lowerback 5.47866 1.2615 -7.35898
upperback 1.58588 0.792331 -7.766
thorax -1.43964 0.260326 -4.00066
lowerneck 5.70643 2.88806 -2.51982
upperneck 7.95192 3.26245 5.38824
head 1.38829 1.5285 2.10945
rclavicle 1.59028e-015 -1.24042e-013
rhumerus -34.1742 7.0974 -98.5216
rradius 32.5746
rwrist 24.5554
rhand -12.1454 17.9595
rfingers 7.12502
rthumb 13.9168 -11.5548
lclavicle 1.59028e-015 -1.24042e-013
lhumerus -47.5661 0.476092 84.0538
lradius 109.742
lwrist 10.0882
lhand -17.6556 -12.4063
lfingers 7.12502
lthumb 8.60268 17.3984
rfemur 11.2143 -5.01184 9.42977
rtibia 47.0845
rfoot -7.02316 -6.24528
rtoes -6.58221
lfemur -24.1853 -13.071 -27.6686
ltibia 43.5013
lfoot -20.9854 15.4653
ltoes -5.33588
212
root 13.2765 16.9082 1.86182 77.3056 -96.5861 -80.5511
lowerback 5.52725 1.34076 -7.13214
upperback 1.51896 0.900002 -7.78198
thorax -1.53094 0.317122 -4.15331
lowerneck 5.58682 2.82935 -2.61999
upperneck 7.91746 3.19042 5.344
head 1.39982 1.49299 2.11521
rclavicle 9.64106e-015 1.1609e-013
rhumerus -33.8208 6.49807 -98.0655
rradius 32.0145
rwrist 24.7731
rhand -12.1326 17.7291
rfingers 7.12502
rthumb 13.9292 -11.7843
lclavicle 9.64106e-015 1.1609e-013
lhumerus -47.3721 0.712652 83.9628
lradius 109.802
lwrist 10.2007
lhand -17.78 -12.4678
lfingers 7.12502
lthumb 8.48266 17.3418
rfemur 11.7072 -4.60253 9.5309
rtibia 46.2984
rfoot -7.07722 -5.89278
rtoes -7.82029
lfemur -24.7612 -13.0469 -27.4695
ltibia 43.5165
lfoot -20.7224 15.4869
ltoes -4.96194
213
root 13.3942 16.8953 1.84939 76.6033 -96.6218 -79.7591
lowerback 5.58239 1.40533 -6.90565
upperback 1.45037 0.987835 -7.79446
thorax -1.62723 0.363892 -4.30134
lowerneck 5.45427 2.78495 -2.71269
upperneck 7.87827 3.14029 5.27128
head 1.41167 1.46859 2.11017
rclavicle 9.93923e-015 -9.38264e-014
rhumerus -33.4585 5.93691 -97.6218
rradius 31.4631
rwrist 24.9614
rhand -12.1859 17.4649
rfingers 7.12502
rthumb 13.8778 -12.0521
lclavicle 9.93923e-015 -9.38264e-014
lhumerus -47.178 0.951541 83.854
lradius 109.866
lwrist 10.2906
lhand -17.8752 -12.479
lfingers 7.12502
lthumb 8.39076 17.3343
rfemur 12.1282 -4.21839 9.63621
rtibia 45.4823
rfoot -7.32401 -5.4531
rtoes -8.90758
lfemur -25.3431 -13.0628 -27.2642
ltibia 43.5273
lfoot -20.5332 15.5447
ltoes -4.80458
214
root 13.5151 16.8826 1.83658 75.9866 -96.6421 -79.063
lowerback 5.68203 1.45697 -6.65731
upperback 1.38121 1.0554 -7.80052
thorax -1.74854 0.400731 -4.45498
lowerneck 5.32718 2.7428 -2.84274
upperneck 7.82992 3.09051 5.23299
head 1.41871 1.44358 2.1228
rclavicle 1.47101e-014 -1.09729e-013
rhumerus -33.0862 5.25675 -97.1462
rradius 30.8928
rwrist 25.2746
rhand -12.358 17.2605
rfingers 7.12502
rthumb 13.712 -12.2677
lclavicle 1.47101e-014 -1.09729e-013
lhumerus -47.0278 1.17883 83.7469
lradius 109.973
lwrist 10.3891
lhand -17.9687 -12.4568
lfingers 7.12502
lthumb 8.30055 17.3601
rfemur 12.4992 -3.86347 9.75456
rtibia 44.6048
rfoot -7.81483 -4.9214
rtoes -9.99766
lfemur -25.8969 -13.0813 -27.0438
ltibia 43.488
lfoot -20.3944 15.5861
ltoes -4.94207
215
root 13.6385 16.8708 1.8231 75.2933 -96.6509 -78.3101
lowerback 5.81345 1.50802 -6.39051
upperback 1.33136 1.12274 -7.79832
thorax -1.86665 0.436964 -4.6113
lowerneck 5.18998 2.70307 -2.9692
upperneck 7.75525 3.04769 5.17186
head 1.41918 1.42232 2.12695
rclavicle 1.09332e-015 5.40694e-014
rhumerus -32.6801 4.54114 -96.6429
rradius 30.361
rwrist 25.6321
rhand -12.5056 17.0518
rfingers 7.12502
rthumb 13.5697 -12.486
lclavicle 1.09332e-015 5.40694e-014
lhumerus -46.824 1.3985 83.6388
lradius 110.048
lwrist 10.4764
lhand -18.0577 -12.4621
lfingers 7.12502
lthumb 8.21467 17.3582
rfemur 12.8489 -3.50507 9.88899
rtibia 43.6969
rfoot -8.53702 -4.37619
rtoes -10.8708
lfemur -26.4275 -13.072 -26.8104
ltibia 43.4475
lfoot -20.2776 15.6181
ltoes -5.1949
216
root 13.7657 16.8559 1.80808 74.6251 -96.6468 -77.5754
lowerback 5.97107 1.53369 -6.14111
upperback 1.27025 1.1543 -7.76721
thorax -2.0128 0.45608 -4.72594
lowerneck 5.02017 2.68756 -3.1139
upperneck 7.71931 3.03705 5.08558
head 1.43639 1.41667 2.12703
rclavicle 1.41137e-014 6.36111e-015
rhumerus -32.2906 3.82448 -96.1083
rradius 29.8338
rwrist 26.0318
rhand -12.7005 16.8912
rfingers 7.12502
rthumb 13.3819 -12.6591
lclavicle 1.41137e-014 6.36111e-015
lhumerus -46.6652 1.69244 83.5496
lradius 110.155
lwrist 10.6031
lhand -18.1253 -12.442
lfingers 7.12502
lthumb 8.14938 17.3809
rfemur 13.1641 -3.13138 10.0577
rtibia 42.7529
rfoot -9.44222 -3.8422
rtoes -11.2936
lfemur -26.9871 -13.079 -26.5489
ltibia 43.4191
lfoot -20.1982 15.6498
ltoes -5.37878
217
root 13.8959 16.8373 1.7917 73.9083 -96.6447 -76.8057
lowerback 6.15338 1.55332 -5.91423
upperback 1.22122 1.17604 -7.72615
thorax -2.16101 0.469909 -4.81757
lowerneck 4.86645 2.67301 -3.22686
upperneck 7.62377 3.03377 4.96546
head 1.4323 1.41525 2.109
rclavicle -5.06901e-015 4.45278e-014
rhumerus -31.8925 3.02364 -95.5522
rradius 29.342
rwrist 26.5459
rhand -12.9257 16.7361
rfingers 7.12502
rthumb 13.1649 -12.8283
lclavicle -5.06901e-015 4.45278e-014
lhumerus -46.4965 2.00134 83.4668
lradius 110.243
lwrist 10.6708
lhand -18.1776 -12.4587
lfingers 7.12502
lthumb 8.09894 17.3661
rfemur 13.4885 -2.74718 10.2436
rtibia 41.7689
rfoot -10.4382 -3.34702
rtoes -11.3895
lfemur -27.5597 -13.0449 -26.2824
ltibia 43.4093
lfoot -20.1102 15.6414
ltoes -5.58689
